<svg xmlns="http://www.w3.org/2000/svg" width="1920" height="1260" viewBox="0 0 1920 1260">
  <defs>
    <style>
      .cls-1 {
        fill-rule: evenodd;
      }
    </style>
  </defs>
  <path id="Color_Fill_1" data-name="Color Fill 1" class="cls-1" d="M0,0H1920V804l-3,1c-7.62,5.124-40.5.942-53-1l-108-7c-7.57,2.62-13.83,9.091-24,11,0.67-1,1.33-2,2-3,42.12-19.407,29.01-102.842-1-125-42.07-31.061-72.36-7.761-116,1-0.33-1-.67-2-1-3-2.01-2.889-4.31-50.5-7-59l-58-9-53-2-178-2-124,2c-44.81,6.762-128.52-7.605-158,13-3.62,13.541-2.5,44.44,0,61q1.5,31.5,3,63,5.505,31,11,62c-40.02.14-72.01-5.813-100-13-44.987-11.552-73.17,16.2-111,13l-66-6c-12.911-3.473-30.075-13.167-50-9-14.531,3.039-30.983,7.955-48,11-27.1,4.848-50.978-4.558-73-5-52.835-1.06-108.494,9.124-151-8l-33,15c-21.643,6.507-55.644-1.214-73-4l-50,4c-10.687,1.256-16.942-9.367-25-11l-33,11H137l-36,5c-36.714-6.6-62.228-13.378-96,2l-5-5V0ZM1668,692l30,1c24.21,7.547,53.35,49.682,34,81-23.03,37.278-72.83,28.978-128,28,0.33-.667.67-1.333,1-2l3-1-6-5c-0.29-29.2,13.15-32.946,22-50q3.495-14.5,7-29C1638.6,703.169,1656.77,700.39,1668,692Z"/>
</svg>
